<svg width="120" height="103" viewBox="0 0 120 103" fill="none" xmlns="http://www.w3.org/2000/svg">
<path id="Vector" d="M120 33.2683C120 70.8293 64.3982 101.232 62.0303 102.488C61.4063 102.824 60.7087 103 60 103C59.2913 103 58.5937 102.824 57.9696 102.488C56.175 101.522 23.925 83.8736 8.31964 59.0834C8.11835 58.7587 8.00727 58.386 7.9979 58.0039C7.98853 57.6218 8.08121 57.2441 8.26634 56.9099C8.45148 56.5757 8.72236 56.297 9.051 56.1028C9.37964 55.9085 9.75411 55.8057 10.1357 55.8049H30C30.7058 55.8053 31.4007 55.6312 32.0231 55.298C32.6455 54.9647 33.1762 54.4827 33.5679 53.8946L38.5714 46.3825L52.1464 66.7727C52.6666 67.5541 53.4282 68.143 54.3145 68.4493C55.2009 68.7555 56.1631 68.7622 57.0536 68.4683C57.9982 68.1478 58.8065 67.5161 59.3464 66.6761L66.5786 55.8049H77.1429C77.7304 55.8062 78.3119 55.6865 78.8513 55.4532C79.3906 55.2199 79.8764 54.878 80.2783 54.4488C80.6802 54.0195 80.9897 53.5121 81.1876 52.958C81.3855 52.4039 81.4675 51.815 81.4286 51.2278C81.3327 50.1244 80.8239 49.0982 80.0042 48.3548C79.1845 47.6114 78.1146 47.2059 77.0089 47.2195H64.2857C63.58 47.2191 62.885 47.3932 62.2626 47.7264C61.6402 48.0597 61.1096 48.5417 60.7179 49.1298L55.7143 56.642L42.1393 36.2517C41.6189 35.4692 40.8563 34.8795 39.9688 34.5732C39.0814 34.2669 38.118 34.2609 37.2268 34.5561C36.2845 34.8784 35.4785 35.5099 34.9393 36.3483L27.7071 47.2195H4.03393C3.57596 47.2208 3.12963 47.0751 2.76038 46.8037C2.39113 46.5324 2.11839 46.1497 1.98214 45.7117C0.690133 41.6898 0.0216458 37.4932 0 33.2683C0.00992538 24.4481 3.51247 15.9919 9.7392 9.75509C15.9659 3.51823 24.4084 0.0100011 33.2143 5.96046e-05C44.2768 5.96046e-05 53.9625 4.76493 60 12.8191C66.0375 4.76493 75.7232 5.96046e-05 86.7857 5.96046e-05C95.5916 0.0100011 104.034 3.51823 110.261 9.75509C116.488 15.9919 119.99 24.4481 120 33.2683Z" fill="#A1282D"/>
</svg>
